<?xml version="1.0" encoding="utf-8"?>
<!-- Generator: Adobe Illustrator 21.1.0, SVG Export Plug-In . SVG Version: 6.00 Build 0)  -->
<svg version="1.1" id="Layer_1" xmlns="http://www.w3.org/2000/svg" xmlns:xlink="http://www.w3.org/1999/xlink" x="0px" y="0px"
	 viewBox="0 0 862 235.6" style="enable-background:new 0 0 862 235.6;" xml:space="preserve">
<style type="text/css">
	.st0{fill:#FF6700;}
</style>
<title>logo-large</title>
<path class="st0" d="M489.1,142.4c-11.1-22-29-35.3-54-36.8c-25.9-1.7-50.2-8.2-72.9-20.6c-0.9-0.5-1.8-1-2.7-1.5l-0.1-0.1l0,0
	l-0.1-0.1c-0.9-0.5-1.8-1-2.7-1.6c-11.6-7-22.3-15.5-31.8-25.1c4,14.8,2.3,30.5-4.8,44.1c-9.3,18.4-23.3,30.6-42.2,35.1
	c13.5,3.5,26.5,8.6,38.6,15.3c0.9,0.5,1.8,1,2.7,1.5l0.1,0.1l0,0l0.1,0.1c0.9,0.5,1.8,1,2.7,1.6c22.2,13.4,40,31.2,54.3,52.8
	c13.9,20.8,34.3,29.8,58.9,28.3c20.2-1.1,36.2-10.6,48.3-26.9c0.3-0.5,0.8-0.9,1.1-1.3l2.3-4l0,0l2.3-4c0.2-0.6,0.4-1.1,0.6-1.6
	C498,179.1,498.2,160.5,489.1,142.4z M454.5,182.1L454.5,182.1c-0.2,0.5-0.5,1.1-0.8,1.6l-0.2,0.3l-0.2,0.3c-0.3,0.5-0.6,1-1,1.5
	l0,0c-8.4,12.1-25,15-37.1,6.6c-10.7-7.5-14.5-21.6-8.8-33.4l0.2-0.5l0.2-0.4l0.2-0.4l0.2-0.4l0.2-0.4l0.3-0.4l0.2-0.4l0.3-0.5
	c8.2-12.2,24.8-15.4,37-7.2C456.4,155.9,460.2,170.2,454.5,182.1L454.5,182.1z"/>
<path class="st0" d="M305.1,32.4l-2.3-4c-0.4-0.4-0.8-0.9-1.1-1.3c-12-16.3-28.1-25.8-48.3-26.9c-24.6-1.4-45,7.5-58.9,28.4
	c-14.4,21.6-32.2,39.4-54.3,52.8c-0.9,0.5-1.8,1.1-2.7,1.6l-0.1,0.1l0,0l-0.1,0.1c-0.9,0.5-1.8,1-2.7,1.5
	c-22.7,12.5-47,19-72.9,20.6c-25,1.6-42.9,14.8-54,36.8c-9.1,18-9,36.7-0.9,55.2c0.2,0.5,0.4,1.1,0.6,1.6l2.3,4l0,0L12,207
	c0.4,0.4,0.8,0.9,1.1,1.3c12,16.3,28.1,25.7,48.3,26.9c24.6,1.4,45-7.5,58.9-28.4c14.4-21.6,32.2-39.4,54.3-52.8
	c0.9-0.5,1.8-1.1,2.7-1.6l0.1-0.1l0,0l0.1-0.1c0.9-0.5,1.8-1,2.7-1.5c22.7-12.5,47-19,72.9-20.6c25-1.6,42.9-14.8,54-36.8
	c9.1-18,9-36.7,0.9-55.2c-0.2-0.5-0.4-1.1-0.6-1.6L305.1,32.4L305.1,32.4L305.1,32.4z M89.3,183.6c-7.4,12.7-23.7,17.1-36.4,9.7
	c-3.4-2-6.4-4.7-8.6-7.9l0,0c-0.3-0.5-0.7-1-1-1.5l-0.2-0.3l-0.2-0.3c-0.3-0.5-0.6-1-0.8-1.6l0,0c-6.3-13.3-0.7-29.2,12.6-35.5
	c11.9-5.7,26.2-1.8,33.5,9.1l0.3,0.5l0.2,0.4l0.3,0.4l0.2,0.4l0.2,0.4l0.2,0.4l0.2,0.4l0.2,0.5C94.1,166.6,93.7,176,89.3,183.6z
	 M248.6,91.6c-8.8,0-17.1-4.3-22.1-11.6l-0.3-0.5l-0.2-0.3l-0.3-0.4l-0.2-0.4l-0.2-0.4l-0.2-0.4l-0.2-0.4l-0.2-0.5
	c-6.4-13.2-0.9-29.2,12.3-35.6c11.8-5.7,26.1-2,33.6,8.8l0,0c0.3,0.5,0.7,1,1,1.5l0.2,0.3l0.2,0.3c0.3,0.5,0.6,1,0.8,1.6l0,0
	c6.3,13.3,0.7,29.2-12.6,35.5C256.5,90.8,252.6,91.7,248.6,91.6L248.6,91.6z"/>
<path class="st0" d="M671.8,38.1c-0.2-0.5-0.4-1.1-0.6-1.6l-2.3-4l0,0l-2.3-4c-0.4-0.4-0.8-0.9-1.1-1.3
	c-12-16.3-28.1-25.7-48.3-26.9c-24.6-1.4-45,7.5-58.9,28.4c-14.4,21.5-32.2,39.3-54.3,52.8c-0.9,0.5-1.8,1.1-2.7,1.6l-0.1,0.1l0,0
	l-0.1,0.1c-0.9,0.5-1.8,1-2.7,1.5c-12.2,6.7-25.2,11.8-38.7,15.3c18.9,4.5,32.9,16.7,42.2,35.1c7.1,13.6,8.8,29.3,4.7,44.1
	c9.5-9.6,20.2-18,31.8-25.1c0.9-0.5,1.8-1.1,2.7-1.6l0.1-0.1l0,0l0.1-0.1c0.9-0.5,1.8-1,2.7-1.5c22.7-12.5,47-19,72.9-20.6
	c25-1.6,42.9-14.8,54-36.8C680,75.2,679.8,56.6,671.8,38.1z M638.9,65.1c0,14.7-11.9,26.6-26.6,26.6c-8.8,0-17.1-4.4-22.1-11.7
	l-0.3-0.5l-0.2-0.3l-0.3-0.4l-0.2-0.4L589,78l-0.2-0.4l-0.2-0.4l-0.2-0.5c-6.4-13.2-0.9-29.2,12.3-35.6c11.8-5.7,26.1-2,33.6,8.8
	l0,0c0.3,0.5,0.7,1,1,1.5l0.2,0.3l0.2,0.3c0.3,0.5,0.6,1,0.8,1.6l0,0C638.1,57.2,638.9,61.1,638.9,65.1L638.9,65.1z"/>
<path class="st0" d="M852.7,142.4c-11.1-22-29-35.3-54-36.8c-25.9-1.7-50.2-8.2-72.9-20.6c-0.9-0.5-1.8-1-2.7-1.5l-0.1-0.1l0,0
	l-0.1-0.1c-0.9-0.5-1.8-1-2.7-1.6c-11.6-7-22.3-15.5-31.8-25.1c4,14.8,2.3,30.5-4.7,44.1c-9.3,18.4-23.3,30.6-42.2,35.1
	c13.5,3.5,26.4,8.6,38.6,15.3c0.9,0.5,1.8,1,2.7,1.5l0.1,0.1l0,0l0.1,0.1c0.9,0.5,1.8,1,2.7,1.6c22.2,13.4,40,31.2,54.3,52.8
	c13.9,20.8,34.3,29.8,58.9,28.4c20.2-1.1,36.2-10.6,48.3-26.9c0.3-0.5,0.8-0.9,1.1-1.3l2.3-4l0,0l2.3-4c0.2-0.6,0.4-1.1,0.6-1.6
	C861.6,179.1,861.8,160.5,852.7,142.4z M818.1,182.1L818.1,182.1c-0.2,0.5-0.5,1.1-0.8,1.6l-0.2,0.3l-0.2,0.3c-0.3,0.5-0.6,1-1,1.5
	l0,0c-8.4,12.1-25,15-37.1,6.6c-10.7-7.5-14.5-21.6-8.8-33.4l0.2-0.5l0.2-0.4l0.2-0.4l0.2-0.4l0.2-0.4l0.3-0.4l0.2-0.4l0.3-0.5
	c8.2-12.2,24.8-15.4,37-7.2C819.9,155.9,823.8,170.2,818.1,182.1L818.1,182.1z"/>
</svg>
