<svg id="Layer_1" data-name="Layer 1" xmlns="http://www.w3.org/2000/svg" viewBox="0 0 1004.27 413.54"><defs><style>.cls-1{font-size:120.42px;fill:#111;font-family:Lato-Italic, Lato;font-style:italic;}.cls-2{letter-spacing:-0.02em;}.cls-3{letter-spacing:-0.01em;}.cls-4{letter-spacing:-0.01em;}.cls-5{letter-spacing:-0.01em;}.cls-6{letter-spacing:0em;}.cls-7{letter-spacing:0em;}.cls-8{letter-spacing:-0.01em;}.cls-9{letter-spacing:-0.01em;}.cls-10{letter-spacing:0em;}.cls-11{letter-spacing:-0.03em;}.cls-12{fill:#ff6700;}</style></defs><title>logo-large</title><text class="cls-1" transform="translate(0 383.44)"><tspan class="cls-2">L</tspan><tspan class="cls-3" x="54.61" y="0">o</tspan><tspan class="cls-4" x="113.91" y="0">o</tspan><tspan class="cls-5" x="172.62" y="0">s</tspan><tspan x="218.25" y="0">e</tspan><tspan class="cls-6" x="273.77" y="0"> </tspan><tspan class="cls-7" x="297.61" y="0">C</tspan><tspan class="cls-8" x="371.9" y="0">hai</tspan><tspan x="524.05" y="0">n </tspan><tspan class="cls-9" x="610.63" y="0">B</tspan><tspan class="cls-10" x="681.13" y="0">i</tspan><tspan class="cls-11" x="710.45" y="0">k</tspan><tspan x="765.12" y="0">e Co.</tspan></text><path class="cls-12" d="M561.09,142.41c-11.1-22-29-35.26-54-36.85-25.89-1.65-50.19-8.17-72.92-20.63q-1.36-.74-2.7-1.51l-.13-.08h0l-.13-.07q-1.33-.78-2.66-1.58a165.92,165.92,0,0,1-31.79-25.08A60.94,60.94,0,0,1,392,100.74c-9.27,18.4-23.29,30.64-42.2,35.11a166,166,0,0,1,38.65,15.27q1.36.74,2.7,1.51l.13.08h0l.13.07q1.33.78,2.66,1.58c22.16,13.45,40,31.24,54.33,52.84C462.27,228,482.68,237,507.32,235.55c20.18-1.15,36.25-10.58,48.26-26.86.35-.47.75-.89,1.13-1.34l2.33-4h0l2.33-4c.2-.55.36-1.11.6-1.64C570.05,179.09,570.19,160.46,561.09,142.41Zm-34.55,39.69h0c-.25.53-.52,1.06-.81,1.57l-.18.32-.18.31c-.3.51-.62,1-1,1.49h0A26.64,26.64,0,0,1,478.51,159l.25-.5.19-.36.24-.44.23-.4.23-.39.26-.43.22-.35.31-.46a26.64,26.64,0,0,1,46.12,26.38Z" transform="translate(0)"/><path class="cls-12" d="M377.12,32.38l-2.33-4c-.38-.44-.78-.87-1.13-1.34C361.65,10.73,345.58,1.29,325.4.14c-24.64-1.41-45,7.51-58.92,28.35-14.37,21.6-32.17,39.39-54.33,52.84q-1.32.8-2.66,1.58l-.13.07h0l-.13.08q-1.34.77-2.7,1.51c-22.73,12.46-47,19-72.92,20.63-25,1.59-42.91,14.81-54,36.85-9.09,18-9,36.68-.87,55.22.23.53.4,1.1.6,1.64l2.33,4h0L84,207c.38.44.78.87,1.13,1.34,12,16.28,28.08,25.71,48.26,26.86,24.64,1.41,45-7.51,58.92-28.35,14.37-21.6,32.17-39.39,54.33-52.84q1.32-.8,2.66-1.58l.13-.07h0l.13-.08q1.34-.77,2.7-1.51c22.73-12.46,47-19,72.92-20.63,25-1.59,42.91-14.81,54-36.85,9.09-18,9-36.68.87-55.22-.23-.53-.4-1.1-.6-1.64l-2.33-4h0ZM161.31,183.65a26.64,26.64,0,0,1-45,1.78h0q-.5-.73-1-1.49l-.18-.31-.18-.32c-.29-.52-.56-1-.81-1.57h0a26.64,26.64,0,0,1,46.12-26.38l.31.46.22.35.26.43.23.39.23.4.24.44.19.36.25.5A26.61,26.61,0,0,1,161.31,183.65Zm159.27-92A26.61,26.61,0,0,1,298.51,80l-.31-.46-.22-.35-.26-.43-.23-.39-.23-.4-.24-.44-.19-.36-.25-.5a26.64,26.64,0,0,1,45.9-26.75h0q.5.73,1,1.49l.18.31.18.32c.29.52.56,1,.81,1.57h0a26.64,26.64,0,0,1-24,38.1Z" transform="translate(0)"/><path class="cls-12" d="M743.75,38.06c-.23-.53-.4-1.1-.6-1.64l-2.33-4h0l-2.33-4c-.38-.44-.78-.87-1.13-1.34-12-16.28-28.08-25.71-48.26-26.86-24.64-1.41-45,7.51-58.92,28.35C615.82,50.09,598,67.88,575.87,81.33q-1.32.8-2.66,1.58l-.13.07h0l-.13.08q-1.34.77-2.7,1.51A166,166,0,0,1,531.6,99.84c18.91,4.47,32.93,16.72,42.2,35.11a60.94,60.94,0,0,1,4.74,44.13A165.92,165.92,0,0,1,610.33,154q1.32-.8,2.66-1.58l.13-.07h0l.13-.08q1.34-.77,2.7-1.51c22.73-12.46,47-19,72.92-20.63,25-1.59,42.91-14.81,54-36.85C752,75.24,751.84,56.6,743.75,38.06Zm-32.83,27A26.64,26.64,0,0,1,662.22,80l-.31-.46-.22-.35-.26-.43-.23-.39L661,78l-.24-.44-.19-.36-.25-.5a26.64,26.64,0,0,1,45.9-26.75h0c.34.48.65,1,1,1.49l.18.31.18.32c.29.52.56,1,.81,1.57h0A26.5,26.5,0,0,1,710.93,65.06Z" transform="translate(0)"/><path class="cls-12" d="M924.66,142.41c-11.1-22-29-35.26-54-36.85-25.89-1.65-50.19-8.17-72.92-20.63q-1.36-.74-2.7-1.51l-.13-.08h0l-.13-.07q-1.33-.78-2.66-1.58a165.92,165.92,0,0,1-31.79-25.08,60.94,60.94,0,0,1-4.74,44.13c-9.27,18.4-23.29,30.64-42.2,35.11A166,166,0,0,1,752,151.12q1.36.74,2.7,1.51l.13.08h0l.13.07q1.33.78,2.66,1.58c22.16,13.45,40,31.24,54.33,52.84C825.84,228,846.25,237,870.89,235.55c20.18-1.15,36.25-10.58,48.26-26.86.35-.47.75-.89,1.13-1.34l2.33-4h0l2.33-4c.2-.55.36-1.11.6-1.64C933.62,179.09,933.75,160.46,924.66,142.41ZM890.11,182.1h0c-.25.53-.52,1.06-.81,1.57l-.18.32-.18.31c-.3.51-.62,1-1,1.49h0A26.64,26.64,0,0,1,842.08,159l.25-.5.19-.36.24-.44.23-.4.23-.39.26-.43.22-.35.31-.46a26.64,26.64,0,0,1,46.12,26.38Z" transform="translate(0)"/></svg>